G04*
G04 #@! TF.GenerationSoftware,Altium Limited,Altium Designer,21.6.1 (37)*
G04*
G04 Layer_Color=32896*
%FSLAX25Y25*%
%MOIN*%
G70*
G04*
G04 #@! TF.SameCoordinates,0D3765A8-6255-4433-B095-22D9DB902932*
G04*
G04*
G04 #@! TF.FilePolarity,Positive*
G04*
G01*
G75*
%ADD12C,0.00787*%
D12*
X281060Y104261D02*
X288540D01*
X281060Y86939D02*
Y104261D01*
Y86939D02*
X288540D01*
Y104261D01*
X96839Y130866D02*
Y139134D01*
Y130866D02*
X114161D01*
Y139134D01*
X96839D02*
X114161D01*
X94189Y129214D02*
Y140986D01*
X67811D02*
X94189D01*
X67811Y129214D02*
Y140986D01*
Y129214D02*
X94189D01*
X94791Y93655D02*
X106209D01*
X94791Y75545D02*
Y93655D01*
Y75545D02*
X106209D01*
Y93655D01*
X114367Y140960D02*
Y150040D01*
X96233D02*
X114367D01*
X96233Y140960D02*
Y150040D01*
Y140960D02*
X114367D01*
X276787Y167024D02*
X284267D01*
X276787Y149701D02*
Y167024D01*
Y149701D02*
X284267D01*
Y167024D01*
X247591Y23145D02*
X259009D01*
Y41255D01*
X247591D02*
X259009D01*
X247591Y23145D02*
Y41255D01*
X275060Y41361D02*
X282540D01*
X275060Y24039D02*
Y41361D01*
Y24039D02*
X282540D01*
Y41361D01*
X253591Y86545D02*
X265009D01*
Y104655D01*
X253591D02*
X265009D01*
X253591Y86545D02*
Y104655D01*
X258493Y128295D02*
Y152705D01*
X245107Y128295D02*
X258493D01*
X245107D02*
Y152705D01*
X258493D01*
M02*
