G04*
G04 #@! TF.GenerationSoftware,Altium Limited,Altium Designer,21.6.1 (37)*
G04*
G04 Layer_Physical_Order=2*
G04 Layer_Color=16711680*
%FSLAX25Y25*%
%MOIN*%
G70*
G04*
G04 #@! TF.SameCoordinates,2A1263DF-4826-4A8C-8573-C9EC19C8CB1A*
G04*
G04*
G04 #@! TF.FilePolarity,Positive*
G04*
G01*
G75*
%ADD58C,0.12205*%
%ADD59C,0.01968*%
%ADD60R,0.12000X0.15900*%
G36*
X330546Y195212D02*
X331386Y194864D01*
X332106Y194311D01*
X332659Y193590D01*
X333007Y192751D01*
X333122Y191878D01*
X333116Y191850D01*
Y167520D01*
X177400D01*
Y195321D01*
X329646D01*
X329673Y195326D01*
X330546Y195212D01*
D02*
G37*
G36*
X333116Y133200D02*
X328520D01*
X328442Y133590D01*
X328221Y133921D01*
X327890Y134142D01*
X327500Y134220D01*
X177400D01*
Y166500D01*
X333116D01*
Y133200D01*
D02*
G37*
G36*
X327483Y133183D02*
X327519Y133001D01*
X327558Y132908D01*
X327578Y132810D01*
X327633Y132726D01*
X327672Y132633D01*
X327743Y132562D01*
X327799Y132479D01*
X327882Y132423D01*
X327953Y132352D01*
X328046Y132314D01*
X328129Y132258D01*
X328228Y132238D01*
X328321Y132200D01*
X328421D01*
X328520Y132180D01*
X333116D01*
Y99900D01*
X328520D01*
X328442Y100290D01*
X328221Y100621D01*
X327890Y100842D01*
X327500Y100920D01*
X177400D01*
Y133200D01*
X327399D01*
X327483Y133183D01*
D02*
G37*
G36*
Y99883D02*
X327519Y99701D01*
X327558Y99608D01*
X327578Y99510D01*
X327633Y99426D01*
X327672Y99334D01*
X327743Y99262D01*
X327799Y99179D01*
X327882Y99123D01*
X327953Y99052D01*
X328046Y99014D01*
X328129Y98958D01*
X328228Y98938D01*
X328321Y98900D01*
X328421D01*
X328520Y98880D01*
X333116D01*
Y66600D01*
X328520D01*
X328442Y66990D01*
X328221Y67321D01*
X327890Y67542D01*
X327500Y67620D01*
X177360D01*
Y99900D01*
X327399D01*
X327483Y99883D01*
D02*
G37*
G36*
Y66583D02*
X327519Y66401D01*
X327558Y66308D01*
X327578Y66210D01*
X327633Y66126D01*
X327672Y66034D01*
X327743Y65962D01*
X327799Y65879D01*
X327882Y65823D01*
X327953Y65752D01*
X328046Y65714D01*
X328129Y65658D01*
X328228Y65638D01*
X328321Y65600D01*
X328421D01*
X328520Y65580D01*
X333116D01*
Y33300D01*
X327517D01*
X327516Y33306D01*
X327512Y33312D01*
X327511Y33319D01*
X327407Y33480D01*
X327304Y33642D01*
X327298Y33647D01*
X327294Y33652D01*
X326946Y34011D01*
X326940Y34015D01*
X326936Y34021D01*
X326776Y34128D01*
X326618Y34236D01*
X326611Y34238D01*
X326605Y34242D01*
X326417Y34279D01*
X326229Y34319D01*
X326222Y34318D01*
X326215Y34320D01*
X177360Y34320D01*
Y66600D01*
X327399D01*
X327483Y66583D01*
D02*
G37*
G36*
X285724Y33300D02*
X326121D01*
X326204Y33282D01*
X326207Y33282D01*
X326210Y33280D01*
X326280Y33233D01*
X326498Y33009D01*
X326543Y32937D01*
X326548Y32932D01*
X326551Y32925D01*
X326644Y32781D01*
X326649Y32769D01*
X326650Y32767D01*
X326654Y32757D01*
X326732Y32674D01*
X326796Y32579D01*
X326868Y32531D01*
X326927Y32468D01*
X327032Y32421D01*
X327127Y32358D01*
X327212Y32341D01*
X327291Y32306D01*
X327405Y32303D01*
X327517Y32280D01*
X333116D01*
Y19685D01*
Y18118D01*
Y5000D01*
X333122Y4972D01*
X333007Y4099D01*
X332659Y3260D01*
X332106Y2539D01*
X331386Y1986D01*
X330546Y1639D01*
X329673Y1524D01*
X329646Y1529D01*
X177360D01*
Y33300D01*
X285724Y33300D01*
D02*
G37*
G36*
X5000Y195321D02*
X176340D01*
Y99900D01*
Y67620D01*
Y66600D01*
Y34320D01*
Y33300D01*
Y1529D01*
X5000D01*
X4972Y1524D01*
X4099Y1639D01*
X3260Y1986D01*
X2539Y2539D01*
X1986Y3260D01*
X1639Y4099D01*
X1524Y4972D01*
X1529Y5000D01*
Y157480D01*
Y191850D01*
X1524Y191878D01*
X1639Y192751D01*
X1986Y193590D01*
X2539Y194311D01*
X3260Y194864D01*
X4099Y195212D01*
X4972Y195326D01*
X5000Y195321D01*
D02*
G37*
%LPC*%
G36*
X17199Y156102D02*
X15800D01*
X14428Y155829D01*
X13136Y155294D01*
X11972Y154517D01*
X10983Y153527D01*
X10206Y152364D01*
X9671Y151072D01*
X9398Y149699D01*
Y148301D01*
X9671Y146928D01*
X10206Y145636D01*
X10983Y144473D01*
X11972Y143483D01*
X13136Y142706D01*
X14428Y142171D01*
X15800Y141898D01*
X17199D01*
X18572Y142171D01*
X19864Y142706D01*
X21027Y143483D01*
X22017Y144473D01*
X22794Y145636D01*
X23329Y146928D01*
X23602Y148301D01*
Y149699D01*
X23329Y151072D01*
X22794Y152364D01*
X22017Y153527D01*
X21027Y154517D01*
X19864Y155294D01*
X18572Y155829D01*
X17199Y156102D01*
D02*
G37*
%LPD*%
D58*
X302700Y178757D02*
D03*
Y145957D02*
D03*
Y113157D02*
D03*
Y14757D02*
D03*
Y47557D02*
D03*
Y80357D02*
D03*
X16500Y149000D02*
D03*
Y71500D02*
D03*
D59*
X30020Y87450D02*
D03*
X33480D02*
D03*
X43860D02*
D03*
X36940D02*
D03*
X40400D02*
D03*
X47320D02*
D03*
X43800Y90900D02*
D03*
X40280D02*
D03*
X47320D02*
D03*
X36760D02*
D03*
X33240D02*
D03*
X29720D02*
D03*
X9020Y90850D02*
D03*
X12540D02*
D03*
X16060D02*
D03*
X26620D02*
D03*
X19580D02*
D03*
X23100D02*
D03*
X26620Y87400D02*
D03*
X19700D02*
D03*
X16240D02*
D03*
X23160D02*
D03*
X12780D02*
D03*
X9320D02*
D03*
X81465Y93606D02*
D03*
X75700D02*
D03*
X78582D02*
D03*
X260947Y171713D02*
D03*
X257307Y175162D02*
D03*
X257427Y171713D02*
D03*
X260767Y175162D02*
D03*
X253907Y171713D02*
D03*
X250387Y175162D02*
D03*
Y171713D02*
D03*
X253847Y175162D02*
D03*
X278007Y175213D02*
D03*
X267687Y175162D02*
D03*
X274547Y175213D02*
D03*
X264227Y175162D02*
D03*
X288387Y175213D02*
D03*
X271087D02*
D03*
X281467D02*
D03*
X284927D02*
D03*
X285167Y171763D02*
D03*
X281647D02*
D03*
X271087D02*
D03*
X278127D02*
D03*
X274607D02*
D03*
X264467Y171713D02*
D03*
X267987D02*
D03*
X288687Y171763D02*
D03*
X270600Y110200D02*
D03*
X267140D02*
D03*
X256760D02*
D03*
X263680D02*
D03*
X260220D02*
D03*
X253300D02*
D03*
X256820Y106750D02*
D03*
X260340D02*
D03*
X253300D02*
D03*
X263860D02*
D03*
X267380D02*
D03*
X270900D02*
D03*
X291600Y106800D02*
D03*
X288080D02*
D03*
X284560D02*
D03*
X274000D02*
D03*
X281040D02*
D03*
X277520D02*
D03*
X274000Y110250D02*
D03*
X280920D02*
D03*
X284380D02*
D03*
X277460D02*
D03*
X287840D02*
D03*
X291300D02*
D03*
X286540Y20950D02*
D03*
X283080D02*
D03*
X272700D02*
D03*
X279620D02*
D03*
X276160D02*
D03*
X269240D02*
D03*
X272760Y17500D02*
D03*
X276280D02*
D03*
X269240D02*
D03*
X279800D02*
D03*
X283320D02*
D03*
X286840D02*
D03*
X266140Y17450D02*
D03*
X262620D02*
D03*
X259100D02*
D03*
X248540D02*
D03*
X255580D02*
D03*
X252060D02*
D03*
X248540Y20900D02*
D03*
X255460D02*
D03*
X258920D02*
D03*
X252000D02*
D03*
X262380D02*
D03*
X265840D02*
D03*
X283433Y57200D02*
D03*
X290100D02*
D03*
X286767D02*
D03*
X280100D02*
D03*
X283433Y53300D02*
D03*
X286767Y53200D02*
D03*
X280100D02*
D03*
X290100Y53100D02*
D03*
X283067Y49600D02*
D03*
X289733D02*
D03*
X286400D02*
D03*
X279733D02*
D03*
X283067Y45700D02*
D03*
X286400Y45600D02*
D03*
X279733D02*
D03*
X289733Y45500D02*
D03*
X270800Y79067D02*
D03*
X270700Y69067D02*
D03*
Y75733D02*
D03*
X270600Y72400D02*
D03*
X266700Y69067D02*
D03*
Y75733D02*
D03*
Y79067D02*
D03*
Y72400D02*
D03*
X278700Y79033D02*
D03*
X278600Y69033D02*
D03*
Y75700D02*
D03*
X278500Y72367D02*
D03*
X274600Y69033D02*
D03*
Y75700D02*
D03*
Y79033D02*
D03*
Y72367D02*
D03*
X284100Y143067D02*
D03*
X269400Y146433D02*
D03*
X284200Y146400D02*
D03*
X269500Y143100D02*
D03*
X273400Y146433D02*
D03*
X288200Y146400D02*
D03*
Y143067D02*
D03*
X273400Y143100D02*
D03*
X265800Y146467D02*
D03*
X280500Y143100D02*
D03*
X265700Y143133D02*
D03*
X280400Y146433D02*
D03*
X276500Y143100D02*
D03*
X261700Y143133D02*
D03*
Y146467D02*
D03*
X276500Y146433D02*
D03*
X87200Y117900D02*
D03*
X84700Y118000D02*
D03*
X89300Y120200D02*
D03*
Y122700D02*
D03*
X92165Y100169D02*
D03*
X87835D02*
D03*
X92165Y104500D02*
D03*
X87835D02*
D03*
X92165Y108831D02*
D03*
X87835D02*
D03*
D60*
X90000Y105450D02*
D03*
M02*
