M48
;Layer_Color=9474304
;FILE_FORMAT=2:4
INCH,TZ
;TYPE=PLATED
T1F00S00C0.0079
T2F00S00C0.1024
%
T01
X932Y8740
X1278
X1624
X1970
X2316
X2662
Y9085
X2972Y9090
X3324
X3676
X4028
X4380
X4386Y8745
X4040
X3694
X3348
X3002
X2310Y9085
X1958
X1606
X1254
X902
X4732Y9090
Y8745
X7570Y9361
X7858
X8146
X8783Y10017
X9217
Y10450
X8783
Y10883
X9217
X8720Y11790
X8470Y11800
X8930Y12020
Y12270
X25330Y11020
Y10675
X25682
X25676Y11020
X26022
X26368
X26714
X27060
X27400Y11025
Y10680
X27090Y10675
X26738
X26386
X26034
X27752Y10680
X27746Y11025
X28092
X28438
X28784
X29130
X29160Y10680
X28808
X28456
X28104
X27870Y7903
X27860Y7570
X27850Y7237
X27860Y6903
X27460
Y7237
Y7570
Y7903
X27080Y7907
X27070Y7573
X27060Y7240
X27070Y6907
X26670
Y7240
Y7573
Y7907
X28010Y5720
X28343
X28677
X29010
Y5310
X28677Y5320
X28343Y5330
X28010Y5320
X27973Y4960
X28307
X28640
X28973
Y4550
X28640Y4560
X28307Y4570
X27973Y4560
X27962Y2095
X28308
X28654
X28684Y1750
X28332
X27980
X27628
X27276
X27270Y2095
X27616
X26924
Y1750
X26614Y1745
X26262
X25910
X25558
X25206
X25200Y2090
X24854
Y1745
X25546Y2090
X25892
X26238
X26584
X26570Y14313
X26580Y14647
X26940Y14643
X26950Y14310
X27340
X27650
Y14643
X27340
X28040
X28050Y14310
X28410Y14307
X28420Y14640
X28820
Y14307
X26170Y14313
Y14647
X26095Y17171
X25743
X25391
X25385Y17516
X25731
X26077
X26423
X26769
X27109Y17521
Y17176
X26799Y17171
X26447
X27461Y17176
X27455Y17521
X27801
X28147
X28493
X28839
X28869Y17176
X28517
X28165
X27813
X25039Y17171
Y17516
T02
X1650Y7150
Y14900
X30270Y14596
Y11316
Y8036
Y4756
Y1476
Y17876
M30
