G04*
G04 #@! TF.GenerationSoftware,Altium Limited,Altium Designer,21.6.1 (37)*
G04*
G04 Layer_Physical_Order=2*
G04 Layer_Color=16711680*
%FSLAX25Y25*%
%MOIN*%
G70*
G04*
G04 #@! TF.SameCoordinates,0D3765A8-6255-4433-B095-22D9DB902932*
G04*
G04*
G04 #@! TF.FilePolarity,Positive*
G04*
G01*
G75*
%ADD58C,0.12205*%
%ADD59C,0.01968*%
%ADD60R,0.12000X0.15900*%
G36*
X322700Y199152D02*
X324888Y197488D01*
X326451Y195401D01*
X327087Y167877D01*
X326738Y167520D01*
X177400D01*
Y199645D01*
X177755Y199998D01*
X322700Y199152D01*
D02*
G37*
G36*
X327500Y134220D02*
X177400D01*
Y166500D01*
X327500D01*
Y134220D01*
D02*
G37*
G36*
Y100920D02*
X177400D01*
Y133200D01*
X327500D01*
Y100920D01*
D02*
G37*
G36*
Y67620D02*
X177360D01*
Y99900D01*
X327500D01*
Y67620D01*
D02*
G37*
G36*
Y34320D02*
X177360Y34320D01*
Y66600D01*
X327500D01*
Y34320D01*
D02*
G37*
G36*
X283495Y33300D02*
X327398D01*
X327694Y33141D01*
X327888Y32942D01*
X327102Y4522D01*
X325740Y3160D01*
X322700Y500D01*
X177774Y5D01*
X177626Y129D01*
X177360Y503D01*
Y33300D01*
X283495Y33300D01*
D02*
G37*
G36*
X176340Y199500D02*
Y99900D01*
Y67620D01*
Y66600D01*
Y34320D01*
Y33300D01*
Y354D01*
X175986Y0D01*
X2710Y186D01*
X1698Y1098D01*
X191Y2604D01*
X75Y195826D01*
X4374Y200126D01*
X176340Y199500D01*
D02*
G37*
%LPC*%
G36*
X17199Y156102D02*
X15800D01*
X14428Y155829D01*
X13136Y155294D01*
X11972Y154517D01*
X10983Y153527D01*
X10206Y152364D01*
X9671Y151072D01*
X9398Y149699D01*
Y148301D01*
X9671Y146928D01*
X10206Y145636D01*
X10983Y144473D01*
X11972Y143483D01*
X13136Y142706D01*
X14428Y142171D01*
X15800Y141898D01*
X17199D01*
X18572Y142171D01*
X19864Y142706D01*
X21027Y143483D01*
X22017Y144473D01*
X22794Y145636D01*
X23329Y146928D01*
X23602Y148301D01*
Y149699D01*
X23329Y151072D01*
X22794Y152364D01*
X22017Y153527D01*
X21027Y154517D01*
X19864Y155294D01*
X18572Y155829D01*
X17199Y156102D01*
D02*
G37*
%LPD*%
D58*
X302700Y178757D02*
D03*
Y145957D02*
D03*
Y113157D02*
D03*
Y14757D02*
D03*
Y47557D02*
D03*
Y80357D02*
D03*
X16500Y149000D02*
D03*
Y71500D02*
D03*
D59*
X30020Y87450D02*
D03*
X33480D02*
D03*
X43860D02*
D03*
X36940D02*
D03*
X40400D02*
D03*
X47320D02*
D03*
X43800Y90900D02*
D03*
X40280D02*
D03*
X47320D02*
D03*
X36760D02*
D03*
X33240D02*
D03*
X29720D02*
D03*
X9020Y90850D02*
D03*
X12540D02*
D03*
X16060D02*
D03*
X26620D02*
D03*
X19580D02*
D03*
X23100D02*
D03*
X26620Y87400D02*
D03*
X19700D02*
D03*
X16240D02*
D03*
X23160D02*
D03*
X12780D02*
D03*
X9320D02*
D03*
X81465Y93606D02*
D03*
X75700D02*
D03*
X78582D02*
D03*
X260947Y171713D02*
D03*
X257307Y175162D02*
D03*
X257427Y171713D02*
D03*
X260767Y175162D02*
D03*
X253907Y171713D02*
D03*
X250387Y175162D02*
D03*
Y171713D02*
D03*
X253847Y175162D02*
D03*
X278007Y175213D02*
D03*
X267687Y175162D02*
D03*
X274547Y175213D02*
D03*
X264227Y175162D02*
D03*
X288387Y175213D02*
D03*
X271087D02*
D03*
X281467D02*
D03*
X284927D02*
D03*
X285167Y171763D02*
D03*
X281647D02*
D03*
X271087D02*
D03*
X278127D02*
D03*
X274607D02*
D03*
X264467Y171713D02*
D03*
X267987D02*
D03*
X288687Y171763D02*
D03*
X270600Y110200D02*
D03*
X267140D02*
D03*
X256760D02*
D03*
X263680D02*
D03*
X260220D02*
D03*
X253300D02*
D03*
X256820Y106750D02*
D03*
X260340D02*
D03*
X253300D02*
D03*
X263860D02*
D03*
X267380D02*
D03*
X270900D02*
D03*
X291600Y106800D02*
D03*
X288080D02*
D03*
X284560D02*
D03*
X274000D02*
D03*
X281040D02*
D03*
X277520D02*
D03*
X274000Y110250D02*
D03*
X280920D02*
D03*
X284380D02*
D03*
X277460D02*
D03*
X287840D02*
D03*
X291300D02*
D03*
X286540Y20950D02*
D03*
X283080D02*
D03*
X272700D02*
D03*
X279620D02*
D03*
X276160D02*
D03*
X269240D02*
D03*
X272760Y17500D02*
D03*
X276280D02*
D03*
X269240D02*
D03*
X279800D02*
D03*
X283320D02*
D03*
X286840D02*
D03*
X266140Y17450D02*
D03*
X262620D02*
D03*
X259100D02*
D03*
X248540D02*
D03*
X255580D02*
D03*
X252060D02*
D03*
X248540Y20900D02*
D03*
X255460D02*
D03*
X258920D02*
D03*
X252000D02*
D03*
X262380D02*
D03*
X265840D02*
D03*
X283433Y57200D02*
D03*
X290100D02*
D03*
X286767D02*
D03*
X280100D02*
D03*
X283433Y53300D02*
D03*
X286767Y53200D02*
D03*
X280100D02*
D03*
X290100Y53100D02*
D03*
X283067Y49600D02*
D03*
X289733D02*
D03*
X286400D02*
D03*
X279733D02*
D03*
X283067Y45700D02*
D03*
X286400Y45600D02*
D03*
X279733D02*
D03*
X289733Y45500D02*
D03*
X270800Y79067D02*
D03*
X270700Y69067D02*
D03*
Y75733D02*
D03*
X270600Y72400D02*
D03*
X266700Y69067D02*
D03*
Y75733D02*
D03*
Y79067D02*
D03*
Y72400D02*
D03*
X278700Y79033D02*
D03*
X278600Y69033D02*
D03*
Y75700D02*
D03*
X278500Y72367D02*
D03*
X274600Y69033D02*
D03*
Y75700D02*
D03*
Y79033D02*
D03*
Y72367D02*
D03*
X284100Y143067D02*
D03*
X269400Y146433D02*
D03*
X284200Y146400D02*
D03*
X269500Y143100D02*
D03*
X273400Y146433D02*
D03*
X288200Y146400D02*
D03*
Y143067D02*
D03*
X273400Y143100D02*
D03*
X265800Y146467D02*
D03*
X280500Y143100D02*
D03*
X265700Y143133D02*
D03*
X280400Y146433D02*
D03*
X276500Y143100D02*
D03*
X261700Y143133D02*
D03*
Y146467D02*
D03*
X276500Y146433D02*
D03*
X87200Y117900D02*
D03*
X84700Y118000D02*
D03*
X89300Y120200D02*
D03*
Y122700D02*
D03*
X92165Y100169D02*
D03*
X87835D02*
D03*
X92165Y104500D02*
D03*
X87835D02*
D03*
X92165Y108831D02*
D03*
X87835D02*
D03*
D60*
X90000Y105450D02*
D03*
M02*
