G04*
G04 #@! TF.GenerationSoftware,Altium Limited,Altium Designer,21.6.1 (37)*
G04*
G04 Layer_Color=8388736*
%FSLAX25Y25*%
%MOIN*%
G70*
G04*
G04 #@! TF.SameCoordinates,0D3765A8-6255-4433-B095-22D9DB902932*
G04*
G04*
G04 #@! TF.FilePolarity,Positive*
G04*
G01*
G75*
%ADD12C,0.00787*%
D12*
X281453Y101899D02*
X288146D01*
X281453Y89301D02*
Y101899D01*
Y89301D02*
X288146D01*
Y101899D01*
X99988Y131260D02*
Y138740D01*
Y131260D02*
X111012D01*
Y138740D01*
X99988D02*
X111012D01*
X90055Y129608D02*
Y140592D01*
X71945D02*
X90055D01*
X71945Y129608D02*
Y140592D01*
Y129608D02*
X90055D01*
X95185Y91490D02*
X105815D01*
X95185Y77710D02*
Y91490D01*
Y77710D02*
X105815D01*
Y91490D01*
X111599Y142350D02*
Y148650D01*
X99001D02*
X111599D01*
X99001Y142350D02*
Y148650D01*
Y142350D02*
X111599D01*
X277181Y164662D02*
X283874D01*
X277181Y152063D02*
Y164662D01*
Y152063D02*
X283874D01*
Y164662D01*
X247985Y25310D02*
X258615D01*
Y39090D01*
X247985D02*
X258615D01*
X247985Y25310D02*
Y39090D01*
X275453Y38999D02*
X282147D01*
X275453Y26401D02*
Y38999D01*
Y26401D02*
X282147D01*
Y38999D01*
X253985Y88710D02*
X264615D01*
Y102490D01*
X253985D02*
X264615D01*
X253985Y88710D02*
Y102490D01*
X257115Y132626D02*
Y148374D01*
X246485Y132626D02*
X257115D01*
X246485D02*
Y148374D01*
X257115D01*
M02*
