G04*
G04 #@! TF.GenerationSoftware,Altium Limited,Altium Designer,21.6.1 (37)*
G04*
G04 Layer_Color=16711935*
%FSLAX25Y25*%
%MOIN*%
G70*
G04*
G04 #@! TF.SameCoordinates,0D3765A8-6255-4433-B095-22D9DB902932*
G04*
G04*
G04 #@! TF.FilePolarity,Positive*
G04*
G01*
G75*
%ADD61C,0.00394*%
%ADD62C,0.01000*%
D61*
X87837Y110608D02*
X87573Y111592D01*
X86852Y112313D01*
X85868Y112577D01*
X84884Y112313D01*
X84163Y111592D01*
X83900Y110608D01*
X84163Y109624D01*
X84884Y108904D01*
X85868Y108640D01*
X86852Y108904D01*
X87573Y109624D01*
X87837Y110608D01*
X308960Y178757D02*
X308879Y179761D01*
X308638Y180739D01*
X308243Y181666D01*
X307704Y182517D01*
X307036Y183271D01*
X306256Y183908D01*
X305383Y184412D01*
X304442Y184769D01*
X303454Y184971D01*
X302448Y185011D01*
X301448Y184890D01*
X300480Y184610D01*
X299570Y184178D01*
X298741Y183606D01*
X298014Y182908D01*
X297409Y182102D01*
X296941Y181210D01*
X296622Y180255D01*
X296460Y179260D01*
Y178253D01*
X296622Y177259D01*
X296941Y176303D01*
X297409Y175411D01*
X298014Y174606D01*
X298741Y173908D01*
X299570Y173336D01*
X300480Y172904D01*
X301448Y172623D01*
X302448Y172502D01*
X303454Y172543D01*
X304442Y172744D01*
X305383Y173101D01*
X306256Y173605D01*
X307036Y174242D01*
X307704Y174996D01*
X308243Y175848D01*
X308638Y176774D01*
X308879Y177753D01*
X308960Y178757D01*
Y145957D02*
X308879Y146961D01*
X308638Y147939D01*
X308243Y148866D01*
X307704Y149717D01*
X307036Y150471D01*
X306256Y151108D01*
X305383Y151612D01*
X304442Y151969D01*
X303454Y152171D01*
X302448Y152211D01*
X301448Y152090D01*
X300480Y151810D01*
X299570Y151378D01*
X298741Y150806D01*
X298014Y150108D01*
X297409Y149302D01*
X296941Y148410D01*
X296622Y147455D01*
X296460Y146460D01*
Y145453D01*
X296622Y144459D01*
X296941Y143503D01*
X297409Y142611D01*
X298014Y141806D01*
X298741Y141108D01*
X299570Y140535D01*
X300480Y140104D01*
X301448Y139823D01*
X302448Y139702D01*
X303454Y139743D01*
X304442Y139944D01*
X305383Y140301D01*
X306256Y140805D01*
X307036Y141442D01*
X307704Y142196D01*
X308243Y143048D01*
X308638Y143974D01*
X308879Y144953D01*
X308960Y145957D01*
Y113157D02*
X308879Y114161D01*
X308638Y115139D01*
X308243Y116066D01*
X307704Y116917D01*
X307036Y117671D01*
X306256Y118308D01*
X305383Y118812D01*
X304442Y119169D01*
X303454Y119371D01*
X302448Y119412D01*
X301448Y119290D01*
X300480Y119010D01*
X299570Y118578D01*
X298741Y118006D01*
X298014Y117308D01*
X297409Y116502D01*
X296941Y115610D01*
X296622Y114655D01*
X296460Y113660D01*
Y112653D01*
X296622Y111659D01*
X296941Y110703D01*
X297409Y109811D01*
X298014Y109006D01*
X298741Y108308D01*
X299570Y107736D01*
X300480Y107304D01*
X301448Y107023D01*
X302448Y106902D01*
X303454Y106942D01*
X304442Y107144D01*
X305383Y107501D01*
X306256Y108005D01*
X307036Y108642D01*
X307704Y109396D01*
X308243Y110248D01*
X308638Y111174D01*
X308879Y112153D01*
X308960Y113157D01*
Y14757D02*
X308879Y15761D01*
X308638Y16739D01*
X308243Y17666D01*
X307704Y18517D01*
X307036Y19271D01*
X306256Y19908D01*
X305383Y20412D01*
X304442Y20769D01*
X303454Y20971D01*
X302448Y21012D01*
X301448Y20890D01*
X300480Y20610D01*
X299570Y20178D01*
X298741Y19606D01*
X298014Y18908D01*
X297409Y18102D01*
X296941Y17210D01*
X296622Y16255D01*
X296460Y15260D01*
Y14253D01*
X296622Y13259D01*
X296941Y12303D01*
X297409Y11411D01*
X298014Y10606D01*
X298741Y9908D01*
X299570Y9336D01*
X300480Y8904D01*
X301448Y8623D01*
X302448Y8502D01*
X303454Y8542D01*
X304442Y8744D01*
X305383Y9101D01*
X306256Y9605D01*
X307036Y10242D01*
X307704Y10996D01*
X308243Y11848D01*
X308638Y12774D01*
X308879Y13753D01*
X308960Y14757D01*
Y47557D02*
X308879Y48561D01*
X308638Y49539D01*
X308243Y50466D01*
X307704Y51317D01*
X307036Y52071D01*
X306256Y52709D01*
X305383Y53212D01*
X304442Y53569D01*
X303454Y53771D01*
X302448Y53812D01*
X301448Y53690D01*
X300480Y53410D01*
X299570Y52978D01*
X298741Y52406D01*
X298014Y51708D01*
X297409Y50902D01*
X296941Y50010D01*
X296622Y49055D01*
X296460Y48060D01*
Y47053D01*
X296622Y46059D01*
X296941Y45103D01*
X297409Y44211D01*
X298014Y43406D01*
X298741Y42708D01*
X299570Y42136D01*
X300480Y41704D01*
X301448Y41423D01*
X302448Y41302D01*
X303454Y41342D01*
X304442Y41544D01*
X305383Y41901D01*
X306256Y42405D01*
X307036Y43042D01*
X307704Y43796D01*
X308243Y44648D01*
X308638Y45574D01*
X308879Y46553D01*
X308960Y47557D01*
Y80357D02*
X308879Y81361D01*
X308638Y82339D01*
X308243Y83266D01*
X307704Y84117D01*
X307036Y84871D01*
X306256Y85509D01*
X305383Y86012D01*
X304442Y86369D01*
X303454Y86571D01*
X302448Y86611D01*
X301448Y86490D01*
X300480Y86210D01*
X299570Y85778D01*
X298741Y85206D01*
X298014Y84508D01*
X297409Y83702D01*
X296941Y82810D01*
X296622Y81855D01*
X296460Y80860D01*
Y79853D01*
X296622Y78859D01*
X296941Y77903D01*
X297409Y77011D01*
X298014Y76206D01*
X298741Y75508D01*
X299570Y74936D01*
X300480Y74504D01*
X301448Y74223D01*
X302448Y74102D01*
X303454Y74142D01*
X304442Y74344D01*
X305383Y74701D01*
X306256Y75205D01*
X307036Y75842D01*
X307704Y76596D01*
X308243Y77448D01*
X308638Y78374D01*
X308879Y79353D01*
X308960Y80357D01*
X22760Y149000D02*
X22679Y150004D01*
X22438Y150982D01*
X22043Y151909D01*
X21504Y152761D01*
X20836Y153515D01*
X20056Y154152D01*
X19184Y154656D01*
X18242Y155013D01*
X17255Y155214D01*
X16248Y155255D01*
X15248Y155133D01*
X14280Y154853D01*
X13370Y154421D01*
X12541Y153849D01*
X11814Y153151D01*
X11209Y152346D01*
X10741Y151454D01*
X10422Y150498D01*
X10261Y149504D01*
Y148496D01*
X10422Y147502D01*
X10741Y146546D01*
X11209Y145654D01*
X11814Y144849D01*
X12541Y144151D01*
X13370Y143579D01*
X14280Y143147D01*
X15248Y142867D01*
X16248Y142745D01*
X17255Y142786D01*
X18242Y142987D01*
X19184Y143345D01*
X20056Y143848D01*
X20836Y144485D01*
X21504Y145239D01*
X22043Y146091D01*
X22438Y147018D01*
X22679Y147996D01*
X22760Y149000D01*
Y71500D02*
X22679Y72504D01*
X22438Y73482D01*
X22043Y74409D01*
X21504Y75261D01*
X20836Y76015D01*
X20056Y76652D01*
X19184Y77156D01*
X18242Y77513D01*
X17255Y77714D01*
X16248Y77755D01*
X15248Y77633D01*
X14280Y77353D01*
X13370Y76921D01*
X12541Y76349D01*
X11814Y75651D01*
X11209Y74846D01*
X10741Y73954D01*
X10422Y72998D01*
X10261Y72004D01*
Y70996D01*
X10422Y70002D01*
X10741Y69046D01*
X11209Y68154D01*
X11814Y67349D01*
X12541Y66651D01*
X13370Y66079D01*
X14280Y65647D01*
X15248Y65367D01*
X16248Y65245D01*
X17255Y65286D01*
X18242Y65487D01*
X19184Y65845D01*
X20056Y66348D01*
X20836Y66985D01*
X21504Y67739D01*
X22043Y68591D01*
X22438Y69518D01*
X22679Y70496D01*
X22760Y71500D01*
X82054Y147772D02*
X88747D01*
X82054Y144228D02*
X88747D01*
X82054D02*
Y147772D01*
X88747Y144228D02*
Y147772D01*
X108828Y81211D02*
X112372D01*
X108828Y87904D02*
X112372D01*
X108828Y81211D02*
Y87904D01*
X112372Y81211D02*
Y87904D01*
X272677Y153067D02*
Y163658D01*
X266378Y153067D02*
X272677D01*
X266378Y163658D02*
X272677D01*
X266378Y153067D02*
Y163658D01*
X256856Y154973D02*
Y161666D01*
X260399Y154973D02*
Y161666D01*
X256856Y154973D02*
X260399D01*
X256856Y161666D02*
X260399D01*
X247249Y58414D02*
X253351D01*
X247249Y47784D02*
X253351D01*
Y58414D01*
X247249Y47784D02*
Y58414D01*
X59107Y110257D02*
X72493D01*
X59107Y117343D02*
X72493D01*
Y110257D02*
Y117343D01*
X59107Y110257D02*
Y117343D01*
X270950Y26905D02*
Y37495D01*
X264650Y26905D02*
X270950D01*
X264650Y37495D02*
X270950D01*
X264650Y26905D02*
Y37495D01*
X276950Y90305D02*
Y100895D01*
X270650Y90305D02*
X276950D01*
X270650Y100895D02*
X276950D01*
X270650Y90305D02*
Y100895D01*
X82325Y94848D02*
X97677D01*
X82325Y114152D02*
X97677D01*
Y94848D02*
Y114152D01*
X82325Y94848D02*
Y114152D01*
X107569Y95857D02*
Y102943D01*
X103631Y95857D02*
Y102943D01*
X107569D01*
X103631Y95857D02*
X107569D01*
X91957Y123969D02*
X99043D01*
X91957Y120031D02*
X99043D01*
X91957D02*
Y123969D01*
X99043Y120031D02*
Y123969D01*
X78957Y120031D02*
Y123969D01*
X86043Y120031D02*
Y123969D01*
X78957D02*
X86043D01*
X78957Y120031D02*
X86043D01*
X65457D02*
Y123969D01*
X72543Y120031D02*
Y123969D01*
X65457D02*
X72543D01*
X65457Y120031D02*
X72543D01*
X248585Y83851D02*
X259215D01*
X248585Y77749D02*
X259215D01*
X248585D02*
Y83851D01*
X259215Y77749D02*
Y83851D01*
X35071Y125886D02*
X40386Y120571D01*
Y99114D02*
Y120571D01*
X13614Y99114D02*
X40386D01*
X13614D02*
Y120571D01*
X18929Y125886D01*
X35071D01*
D62*
X114752Y125778D02*
X116418D01*
X115585D01*
Y130776D01*
X114752Y129943D01*
X118084Y71776D02*
X116418Y70943D01*
X114752Y69277D01*
Y67611D01*
X115585Y66778D01*
X117251D01*
X118084Y67611D01*
Y68444D01*
X117251Y69277D01*
X114752D01*
X236752Y71776D02*
X240084D01*
Y70943D01*
X236752Y67611D01*
Y66778D01*
Y125778D02*
X238418D01*
X237585D01*
Y130776D01*
X236752Y129943D01*
X244250Y125778D02*
X240917D01*
X244250Y129110D01*
Y129943D01*
X243417Y130776D01*
X241750D01*
X240917Y129943D01*
M02*
