G04*
G04 #@! TF.GenerationSoftware,Altium Limited,Altium Designer,21.6.1 (37)*
G04*
G04 Layer_Color=32768*
%FSLAX25Y25*%
%MOIN*%
G70*
G04*
G04 #@! TF.SameCoordinates,2A1263DF-4826-4A8C-8573-C9EC19C8CB1A*
G04*
G04*
G04 #@! TF.FilePolarity,Positive*
G04*
G01*
G75*
%ADD61C,0.00394*%
%ADD63C,0.00197*%
D61*
X85400Y144228D02*
Y147772D01*
X83628Y146000D02*
X87172D01*
X110600Y82786D02*
Y86329D01*
X108828Y84557D02*
X112372D01*
X267559Y158362D02*
X271496D01*
X269527Y156394D02*
Y160331D01*
X256856Y158320D02*
X260399D01*
X258627Y156548D02*
Y160092D01*
X248331Y53099D02*
X252269D01*
X250300Y51131D02*
Y55068D01*
X65800Y111831D02*
Y115769D01*
X63832Y113800D02*
X67769D01*
X265831Y32200D02*
X269769D01*
X267800Y30231D02*
Y34168D01*
X271831Y95600D02*
X275768D01*
X273800Y93632D02*
Y97569D01*
X90000Y102532D02*
Y106468D01*
X88032Y104500D02*
X91969D01*
X103631Y99400D02*
X107569D01*
X105600Y97431D02*
Y101368D01*
X302700Y176788D02*
Y180725D01*
X300731Y178757D02*
X304668D01*
X302700Y143988D02*
Y147925D01*
X300731Y145957D02*
X304668D01*
X302700Y111188D02*
Y115125D01*
X300731Y113157D02*
X304668D01*
X302700Y12788D02*
Y16725D01*
X300731Y14757D02*
X304668D01*
X302700Y45588D02*
Y49525D01*
X300731Y47557D02*
X304668D01*
X302700Y78388D02*
Y82325D01*
X300731Y80357D02*
X304668D01*
X95500Y120031D02*
Y123969D01*
X93532Y122000D02*
X97469D01*
X14532Y149000D02*
X18469D01*
X16500Y147031D02*
Y150969D01*
X14532Y71500D02*
X18469D01*
X16500Y69532D02*
Y73469D01*
X80532Y122000D02*
X84469D01*
X82500Y120031D02*
Y123969D01*
X67032Y122000D02*
X70969D01*
X69000Y120031D02*
Y123969D01*
X251932Y80800D02*
X255869D01*
X253900Y78831D02*
Y82768D01*
X27000Y110531D02*
Y114469D01*
X25032Y112500D02*
X28969D01*
D63*
X311558Y178757D02*
X311503Y179748D01*
X311336Y180728D01*
X311061Y181682D01*
X310681Y182600D01*
X310201Y183470D01*
X309626Y184280D01*
X308964Y185020D01*
X308223Y185682D01*
X307413Y186257D01*
X306543Y186738D01*
X305626Y187118D01*
X304671Y187393D01*
X303692Y187559D01*
X302700Y187615D01*
X301708Y187559D01*
X300729Y187393D01*
X299774Y187118D01*
X298856Y186738D01*
X297987Y186257D01*
X297177Y185682D01*
X296436Y185020D01*
X295774Y184280D01*
X295199Y183470D01*
X294719Y182600D01*
X294339Y181682D01*
X294064Y180728D01*
X293897Y179748D01*
X293842Y178757D01*
X293897Y177765D01*
X294064Y176786D01*
X294339Y175831D01*
X294719Y174913D01*
X295199Y174044D01*
X295774Y173234D01*
X296436Y172493D01*
X297177Y171831D01*
X297987Y171256D01*
X298856Y170776D01*
X299774Y170396D01*
X300729Y170121D01*
X301708Y169954D01*
X302700Y169898D01*
X303692Y169954D01*
X304671Y170121D01*
X305626Y170396D01*
X306543Y170776D01*
X307413Y171256D01*
X308223Y171831D01*
X308964Y172493D01*
X309626Y173234D01*
X310201Y174044D01*
X310681Y174913D01*
X311061Y175831D01*
X311336Y176786D01*
X311503Y177765D01*
X311558Y178757D01*
Y145957D02*
X311503Y146949D01*
X311336Y147928D01*
X311061Y148882D01*
X310681Y149800D01*
X310201Y150670D01*
X309626Y151480D01*
X308964Y152220D01*
X308223Y152882D01*
X307413Y153457D01*
X306543Y153938D01*
X305626Y154318D01*
X304671Y154593D01*
X303692Y154759D01*
X302700Y154815D01*
X301708Y154759D01*
X300729Y154593D01*
X299774Y154318D01*
X298856Y153938D01*
X297987Y153457D01*
X297177Y152882D01*
X296436Y152220D01*
X295774Y151480D01*
X295199Y150670D01*
X294719Y149800D01*
X294339Y148882D01*
X294064Y147928D01*
X293897Y146949D01*
X293842Y145957D01*
X293897Y144965D01*
X294064Y143985D01*
X294339Y143031D01*
X294719Y142113D01*
X295199Y141244D01*
X295774Y140434D01*
X296436Y139693D01*
X297177Y139031D01*
X297987Y138456D01*
X298856Y137976D01*
X299774Y137595D01*
X300729Y137320D01*
X301708Y137154D01*
X302700Y137098D01*
X303692Y137154D01*
X304671Y137320D01*
X305626Y137595D01*
X306543Y137976D01*
X307413Y138456D01*
X308223Y139031D01*
X308964Y139693D01*
X309626Y140434D01*
X310201Y141244D01*
X310681Y142113D01*
X311061Y143031D01*
X311336Y143985D01*
X311503Y144965D01*
X311558Y145957D01*
Y113157D02*
X311503Y114148D01*
X311336Y115128D01*
X311061Y116082D01*
X310681Y117000D01*
X310201Y117870D01*
X309626Y118680D01*
X308964Y119420D01*
X308223Y120082D01*
X307413Y120657D01*
X306543Y121138D01*
X305626Y121518D01*
X304671Y121793D01*
X303692Y121959D01*
X302700Y122015D01*
X301708Y121959D01*
X300729Y121793D01*
X299774Y121518D01*
X298856Y121138D01*
X297987Y120657D01*
X297177Y120082D01*
X296436Y119420D01*
X295774Y118680D01*
X295199Y117870D01*
X294719Y117000D01*
X294339Y116082D01*
X294064Y115128D01*
X293897Y114148D01*
X293842Y113157D01*
X293897Y112165D01*
X294064Y111186D01*
X294339Y110231D01*
X294719Y109313D01*
X295199Y108444D01*
X295774Y107634D01*
X296436Y106893D01*
X297177Y106231D01*
X297987Y105656D01*
X298856Y105176D01*
X299774Y104796D01*
X300729Y104520D01*
X301708Y104354D01*
X302700Y104298D01*
X303692Y104354D01*
X304671Y104520D01*
X305626Y104796D01*
X306543Y105176D01*
X307413Y105656D01*
X308223Y106231D01*
X308964Y106893D01*
X309626Y107634D01*
X310201Y108444D01*
X310681Y109313D01*
X311061Y110231D01*
X311336Y111186D01*
X311503Y112165D01*
X311558Y113157D01*
Y14757D02*
X311503Y15748D01*
X311336Y16728D01*
X311061Y17682D01*
X310681Y18600D01*
X310201Y19470D01*
X309626Y20280D01*
X308964Y21020D01*
X308223Y21682D01*
X307413Y22257D01*
X306543Y22738D01*
X305626Y23118D01*
X304671Y23393D01*
X303692Y23559D01*
X302700Y23615D01*
X301708Y23559D01*
X300729Y23393D01*
X299774Y23118D01*
X298856Y22738D01*
X297987Y22257D01*
X297177Y21682D01*
X296436Y21020D01*
X295774Y20280D01*
X295199Y19470D01*
X294719Y18600D01*
X294339Y17682D01*
X294064Y16728D01*
X293897Y15748D01*
X293842Y14757D01*
X293897Y13765D01*
X294064Y12786D01*
X294339Y11831D01*
X294719Y10913D01*
X295199Y10044D01*
X295774Y9234D01*
X296436Y8493D01*
X297177Y7831D01*
X297987Y7256D01*
X298856Y6776D01*
X299774Y6396D01*
X300729Y6120D01*
X301708Y5954D01*
X302700Y5898D01*
X303692Y5954D01*
X304671Y6120D01*
X305626Y6396D01*
X306543Y6776D01*
X307413Y7256D01*
X308223Y7831D01*
X308964Y8493D01*
X309626Y9234D01*
X310201Y10044D01*
X310681Y10913D01*
X311061Y11831D01*
X311336Y12786D01*
X311503Y13765D01*
X311558Y14757D01*
Y47557D02*
X311503Y48548D01*
X311336Y49528D01*
X311061Y50482D01*
X310681Y51400D01*
X310201Y52270D01*
X309626Y53080D01*
X308964Y53820D01*
X308223Y54482D01*
X307413Y55057D01*
X306543Y55538D01*
X305626Y55918D01*
X304671Y56193D01*
X303692Y56359D01*
X302700Y56415D01*
X301708Y56359D01*
X300729Y56193D01*
X299774Y55918D01*
X298856Y55538D01*
X297987Y55057D01*
X297177Y54482D01*
X296436Y53820D01*
X295774Y53080D01*
X295199Y52270D01*
X294719Y51400D01*
X294339Y50482D01*
X294064Y49528D01*
X293897Y48548D01*
X293842Y47557D01*
X293897Y46565D01*
X294064Y45586D01*
X294339Y44631D01*
X294719Y43713D01*
X295199Y42844D01*
X295774Y42034D01*
X296436Y41293D01*
X297177Y40631D01*
X297987Y40056D01*
X298856Y39576D01*
X299774Y39195D01*
X300729Y38921D01*
X301708Y38754D01*
X302700Y38698D01*
X303692Y38754D01*
X304671Y38921D01*
X305626Y39195D01*
X306543Y39576D01*
X307413Y40056D01*
X308223Y40631D01*
X308964Y41293D01*
X309626Y42034D01*
X310201Y42844D01*
X310681Y43713D01*
X311061Y44631D01*
X311336Y45586D01*
X311503Y46565D01*
X311558Y47557D01*
Y80357D02*
X311503Y81349D01*
X311336Y82328D01*
X311061Y83282D01*
X310681Y84200D01*
X310201Y85070D01*
X309626Y85880D01*
X308964Y86620D01*
X308223Y87282D01*
X307413Y87857D01*
X306543Y88338D01*
X305626Y88718D01*
X304671Y88993D01*
X303692Y89159D01*
X302700Y89215D01*
X301708Y89159D01*
X300729Y88993D01*
X299774Y88718D01*
X298856Y88338D01*
X297987Y87857D01*
X297177Y87282D01*
X296436Y86620D01*
X295774Y85880D01*
X295199Y85070D01*
X294719Y84200D01*
X294339Y83282D01*
X294064Y82328D01*
X293897Y81349D01*
X293842Y80357D01*
X293897Y79365D01*
X294064Y78386D01*
X294339Y77431D01*
X294719Y76513D01*
X295199Y75644D01*
X295774Y74834D01*
X296436Y74093D01*
X297177Y73431D01*
X297987Y72856D01*
X298856Y72376D01*
X299774Y71996D01*
X300729Y71720D01*
X301708Y71554D01*
X302700Y71498D01*
X303692Y71554D01*
X304671Y71720D01*
X305626Y71996D01*
X306543Y72376D01*
X307413Y72856D01*
X308223Y73431D01*
X308964Y74093D01*
X309626Y74834D01*
X310201Y75644D01*
X310681Y76513D01*
X311061Y77431D01*
X311336Y78386D01*
X311503Y79365D01*
X311558Y80357D01*
X25358Y149000D02*
X25303Y149992D01*
X25136Y150971D01*
X24861Y151926D01*
X24481Y152843D01*
X24001Y153713D01*
X23426Y154523D01*
X22764Y155264D01*
X22023Y155926D01*
X21213Y156500D01*
X20344Y156981D01*
X19426Y157361D01*
X18471Y157636D01*
X17492Y157803D01*
X16500Y157858D01*
X15508Y157803D01*
X14529Y157636D01*
X13574Y157361D01*
X12656Y156981D01*
X11787Y156500D01*
X10977Y155926D01*
X10236Y155264D01*
X9574Y154523D01*
X8999Y153713D01*
X8519Y152843D01*
X8139Y151926D01*
X7864Y150971D01*
X7697Y149992D01*
X7642Y149000D01*
X7697Y148008D01*
X7864Y147029D01*
X8139Y146074D01*
X8519Y145157D01*
X8999Y144287D01*
X9574Y143477D01*
X10236Y142736D01*
X10977Y142074D01*
X11787Y141499D01*
X12657Y141019D01*
X13574Y140639D01*
X14529Y140364D01*
X15508Y140197D01*
X16500Y140142D01*
X17492Y140197D01*
X18471Y140364D01*
X19426Y140639D01*
X20344Y141019D01*
X21213Y141499D01*
X22023Y142074D01*
X22764Y142736D01*
X23426Y143477D01*
X24001Y144287D01*
X24481Y145157D01*
X24861Y146074D01*
X25136Y147029D01*
X25303Y148008D01*
X25358Y149000D01*
Y71500D02*
X25303Y72492D01*
X25136Y73471D01*
X24861Y74426D01*
X24481Y75344D01*
X24001Y76213D01*
X23426Y77023D01*
X22764Y77764D01*
X22023Y78426D01*
X21213Y79001D01*
X20344Y79481D01*
X19426Y79861D01*
X18471Y80136D01*
X17492Y80303D01*
X16500Y80358D01*
X15508Y80303D01*
X14529Y80136D01*
X13574Y79861D01*
X12656Y79481D01*
X11787Y79001D01*
X10977Y78426D01*
X10236Y77764D01*
X9574Y77023D01*
X8999Y76213D01*
X8519Y75344D01*
X8139Y74426D01*
X7864Y73471D01*
X7697Y72492D01*
X7642Y71500D01*
X7697Y70508D01*
X7864Y69529D01*
X8139Y68574D01*
X8519Y67656D01*
X8999Y66787D01*
X9574Y65977D01*
X10236Y65236D01*
X10977Y64574D01*
X11787Y63999D01*
X12657Y63519D01*
X13574Y63139D01*
X14529Y62864D01*
X15508Y62697D01*
X16500Y62642D01*
X17492Y62697D01*
X18471Y62864D01*
X19426Y63139D01*
X20344Y63519D01*
X21213Y63999D01*
X22023Y64574D01*
X22764Y65236D01*
X23426Y65977D01*
X24001Y66787D01*
X24481Y67656D01*
X24861Y68574D01*
X25136Y69529D01*
X25303Y70508D01*
X25358Y71500D01*
X78707Y150134D02*
X92093D01*
X78707Y141866D02*
X92093D01*
X78707D02*
Y150134D01*
X92093Y141866D02*
Y150134D01*
X106466Y77865D02*
X114734D01*
X106466Y91250D02*
X114734D01*
X106466Y77865D02*
Y91250D01*
X114734Y77865D02*
Y91250D01*
X273071Y149740D02*
Y166984D01*
X265984Y149740D02*
X273071D01*
X265984Y166984D02*
X273071D01*
X265984Y149740D02*
Y166984D01*
X254493Y151627D02*
Y165013D01*
X262761Y151627D02*
Y165013D01*
X254493Y151627D02*
X262761D01*
X254493Y165013D02*
X262761D01*
X246855Y44733D02*
X253745D01*
Y61465D01*
X246855D02*
X253745D01*
X246855Y44733D02*
Y61465D01*
X54973Y108091D02*
X76627D01*
X54973Y119509D02*
X76627D01*
Y108091D02*
Y119509D01*
X54973Y108091D02*
Y119509D01*
X271343Y23578D02*
Y40822D01*
X264257Y23578D02*
X271343D01*
X264257Y40822D02*
X271343D01*
X264257Y23578D02*
Y40822D01*
X277343Y86978D02*
Y104222D01*
X270257Y86978D02*
X277343D01*
X270257Y104222D02*
X277343D01*
X270257Y86978D02*
Y104222D01*
X77114Y94067D02*
X102886D01*
X77114Y114933D02*
X102886D01*
Y94067D02*
Y114933D01*
X77114Y94067D02*
Y114933D01*
X108553Y94085D02*
Y104715D01*
X102647Y94085D02*
Y104715D01*
X108553D01*
X102647Y94085D02*
X108553D01*
X90185Y124953D02*
X100815D01*
X90185Y119047D02*
X100815D01*
X90185D02*
Y124953D01*
X100815Y119047D02*
Y124953D01*
X77185Y119047D02*
Y124953D01*
X87815Y119047D02*
Y124953D01*
X77185D02*
X87815D01*
X77185Y119047D02*
X87815D01*
X63685D02*
Y124953D01*
X74315Y119047D02*
Y124953D01*
X63685D02*
X74315D01*
X63685Y119047D02*
X74315D01*
X245534Y84245D02*
X262266D01*
Y77355D02*
Y84245D01*
X245534Y77355D02*
X262266D01*
X245534D02*
Y84245D01*
X13220Y128150D02*
X40780D01*
X13220Y96850D02*
X40780D01*
Y128150D01*
X13220Y96850D02*
Y128150D01*
M02*
