G04*
G04 #@! TF.GenerationSoftware,Altium Limited,Altium Designer,21.6.1 (37)*
G04*
G04 Layer_Color=16711935*
%FSLAX25Y25*%
%MOIN*%
G70*
G04*
G04 #@! TF.SameCoordinates,2A1263DF-4826-4A8C-8573-C9EC19C8CB1A*
G04*
G04*
G04 #@! TF.FilePolarity,Negative*
G04*
G01*
G75*
%ADD48C,0.13005*%
%ADD49C,0.02769*%
D48*
X302700Y178757D02*
D03*
Y145957D02*
D03*
Y113157D02*
D03*
Y14757D02*
D03*
Y47557D02*
D03*
Y80357D02*
D03*
X16500Y149000D02*
D03*
Y71500D02*
D03*
D49*
X30020Y87450D02*
D03*
X33480D02*
D03*
X43860D02*
D03*
X36940D02*
D03*
X40400D02*
D03*
X47320D02*
D03*
X43800Y90900D02*
D03*
X40280D02*
D03*
X47320D02*
D03*
X36760D02*
D03*
X33240D02*
D03*
X29720D02*
D03*
X9020Y90850D02*
D03*
X12540D02*
D03*
X16060D02*
D03*
X26620D02*
D03*
X19580D02*
D03*
X23100D02*
D03*
X26620Y87400D02*
D03*
X19700D02*
D03*
X16240D02*
D03*
X23160D02*
D03*
X12780D02*
D03*
X9320D02*
D03*
X81465Y93606D02*
D03*
X75700D02*
D03*
X78582D02*
D03*
X260947Y171713D02*
D03*
X257307Y175162D02*
D03*
X257427Y171713D02*
D03*
X260767Y175162D02*
D03*
X253907Y171713D02*
D03*
X250387Y175162D02*
D03*
Y171713D02*
D03*
X253847Y175162D02*
D03*
X278007Y175213D02*
D03*
X267687Y175162D02*
D03*
X274547Y175213D02*
D03*
X264227Y175162D02*
D03*
X288387Y175213D02*
D03*
X271087D02*
D03*
X281467D02*
D03*
X284927D02*
D03*
X285167Y171763D02*
D03*
X281647D02*
D03*
X271087D02*
D03*
X278127D02*
D03*
X274607D02*
D03*
X264467Y171713D02*
D03*
X267987D02*
D03*
X288687Y171763D02*
D03*
X270600Y110200D02*
D03*
X267140D02*
D03*
X256760D02*
D03*
X263680D02*
D03*
X260220D02*
D03*
X253300D02*
D03*
X256820Y106750D02*
D03*
X260340D02*
D03*
X253300D02*
D03*
X263860D02*
D03*
X267380D02*
D03*
X270900D02*
D03*
X291600Y106800D02*
D03*
X288080D02*
D03*
X284560D02*
D03*
X274000D02*
D03*
X281040D02*
D03*
X277520D02*
D03*
X274000Y110250D02*
D03*
X280920D02*
D03*
X284380D02*
D03*
X277460D02*
D03*
X287840D02*
D03*
X291300D02*
D03*
X286540Y20950D02*
D03*
X283080D02*
D03*
X272700D02*
D03*
X279620D02*
D03*
X276160D02*
D03*
X269240D02*
D03*
X272760Y17500D02*
D03*
X276280D02*
D03*
X269240D02*
D03*
X279800D02*
D03*
X283320D02*
D03*
X286840D02*
D03*
X266140Y17450D02*
D03*
X262620D02*
D03*
X259100D02*
D03*
X248540D02*
D03*
X255580D02*
D03*
X252060D02*
D03*
X248540Y20900D02*
D03*
X255460D02*
D03*
X258920D02*
D03*
X252000D02*
D03*
X262380D02*
D03*
X265840D02*
D03*
X283433Y57200D02*
D03*
X290100D02*
D03*
X286767D02*
D03*
X280100D02*
D03*
X283433Y53300D02*
D03*
X286767Y53200D02*
D03*
X280100D02*
D03*
X290100Y53100D02*
D03*
X283067Y49600D02*
D03*
X289733D02*
D03*
X286400D02*
D03*
X279733D02*
D03*
X283067Y45700D02*
D03*
X286400Y45600D02*
D03*
X279733D02*
D03*
X289733Y45500D02*
D03*
X270800Y79067D02*
D03*
X270700Y69067D02*
D03*
Y75733D02*
D03*
X270600Y72400D02*
D03*
X266700Y69067D02*
D03*
Y75733D02*
D03*
Y79067D02*
D03*
Y72400D02*
D03*
X278700Y79033D02*
D03*
X278600Y69033D02*
D03*
Y75700D02*
D03*
X278500Y72367D02*
D03*
X274600Y69033D02*
D03*
Y75700D02*
D03*
Y79033D02*
D03*
Y72367D02*
D03*
X284100Y143067D02*
D03*
X269400Y146433D02*
D03*
X284200Y146400D02*
D03*
X269500Y143100D02*
D03*
X273400Y146433D02*
D03*
X288200Y146400D02*
D03*
Y143067D02*
D03*
X273400Y143100D02*
D03*
X265800Y146467D02*
D03*
X280500Y143100D02*
D03*
X265700Y143133D02*
D03*
X280400Y146433D02*
D03*
X276500Y143100D02*
D03*
X261700Y143133D02*
D03*
Y146467D02*
D03*
X276500Y146433D02*
D03*
X87200Y117900D02*
D03*
X84700Y118000D02*
D03*
X89300Y120200D02*
D03*
Y122700D02*
D03*
X92165Y100169D02*
D03*
X87835D02*
D03*
X92165Y104500D02*
D03*
X87835D02*
D03*
X92165Y108831D02*
D03*
X87835D02*
D03*
M02*
